<?xml version="1.0" standalone="no"?>
<!DOCTYPE svg PUBLIC "-//W3C//DTD SVG 20010904//EN"
 "http://www.w3.org/TR/2001/REC-SVG-20010904/DTD/svg10.dtd">
<svg version="1.0" xmlns="http://www.w3.org/2000/svg"
 width="100.000000pt" height="100.000000pt" viewBox="0 0 100.000000 100.000000"
 preserveAspectRatio="xMidYMid meet">
<metadata>
Created by potrace 1.14, written by Peter Selinger 2001-2017
</metadata>
<g transform="translate(0.000000,100.000000) scale(0.100000,-0.100000)"
fill="#000000" stroke="none">
<path d="M387 944 c-167 -44 -298 -181 -336 -349 -41 -187 49 -393 217 -491
132 -78 318 -81 454 -7 53 29 137 110 170 163 83 137 86 335 6 471 -34 58
-109 133 -166 166 -94 56 -239 75 -345 47z m27 -286 c89 -145 88 -143 97 -123
5 11 26 47 47 80 30 46 45 61 66 63 l27 3 -52 -83 c-29 -46 -58 -92 -64 -103
-8 -12 -12 -51 -11 -98 1 -74 0 -77 -21 -77 -13 0 -23 6 -24 13 0 6 -1 44 -2
83 -1 39 -7 78 -13 85 -6 8 -35 51 -63 97 -50 80 -51 82 -26 82 15 0 30 -9 39
-22z"/>
</g>
</svg>
